<svg xmlns="http://www.w3.org/2000/svg" xmlns:xlink="http://www.w3.org/1999/xlink" width="36.816" height="36.815" viewBox="0 0 36.816 36.815"><defs><clipPath id="a"><path d="M0-30.277H36.816V6.538H0Z" transform="translate(0 30.277)" fill="none"/></clipPath></defs><g transform="translate(18482 6909.261)"><g transform="translate(-18482 -6909.261)" clip-path="url(#a)"><g transform="translate(0 0)"><path d="M3.269,0a18.408,18.408,0,1,0,0,36.815A18.408,18.408,0,1,0,3.269,0m0,35.343a16.935,16.935,0,1,1,0-33.87,16.935,16.935,0,1,1,0,33.87M10.2,17.366a1.473,1.473,0,0,1,0,2.083l-5.892,5.89a1.461,1.461,0,0,1-1.035.432h-.01a1.43,1.43,0,0,1-.556-.111,1.449,1.449,0,0,1-.48-.321l-5.891-5.89a1.473,1.473,0,0,1,0-2.083,1.473,1.473,0,0,1,2.083,0L1.8,20.743V12.517a1.473,1.473,0,0,1,2.945,0v8.226l3.377-3.377a1.473,1.473,0,0,1,2.083,0" transform="translate(15.14)" fill="#3b4242"/></g></g></g></svg>