<svg xmlns="http://www.w3.org/2000/svg" width="252" height="86.817" viewBox="0 0 252 86.817"><g transform="translate(17689 7043.817)"><rect width="252" height="86.817" transform="translate(-17689 -7043.817)" fill="#fff" opacity="0"/><path d="M37.421,66.524l3.586-9.735,3.417,9.735Zm10.484,9.809h3.286L42.663,52.9H39.413L30.489,76.333H33.8l2.621-7.184h8.928Zm15.6-4.963c0,1.911-1.55,2.926-4.2,2.926-2.137,0-3.572-.6-4.367-1.981l-3.162.555c1.231,2.517,3.792,3.721,7.4,3.721,4.9,0,7.453-2.711,7.453-5.6,0-3.711-3.421-4.716-7.358-5.512-1.9-.38-4.132-1.086-4.132-2.77,0-1.2,1.171-2.587,3.516-2.587A4.468,4.468,0,0,1,62.7,62.4l2.776-1.156c-1.27-2.425-3.816-3.416-6.482-3.416-4.117,0-6.848,2.031-6.848,5.257,0,3.671,3.146,4.391,6.192,5.052C60.96,68.7,63.5,69.349,63.5,71.369ZM73.191,52.9l-3.082,1.286v4.326H67.283v2.491h2.827V72.446c-.04,2.326-.04,4.007,3.421,4.007a20.1,20.1,0,0,0,2.9-.3V73.685a7.639,7.639,0,0,1-1.955.411c-1.28,0-1.28-.9-1.28-3V61.005h3.235V58.514H73.191Zm5.937,5.612V76.333h2.986V68.139c0-1.527-.04-3.337.756-4.627.97-1.58,2.41-2.18,5.341-2.2V58.225a6.452,6.452,0,0,0-6.1,3.477V58.514Zm26.77-5.607v2.886h13.315L105.888,73.286v3.046H123.1V73.52H109.5l13.26-17.691V52.907Zm35.934,5.607V76.333h2.989V66.227a4.894,4.894,0,0,1,1.321-3.986,4.6,4.6,0,0,1,3.4-1.351,3.769,3.769,0,0,1,3.816,2.441,9.749,9.749,0,0,1,.191,2.931v10.07h2.981V65.773a13,13,0,0,0-.306-3.646,5.862,5.862,0,0,0-5.853-4.073,6.264,6.264,0,0,0-5.552,3.172V58.514Zm46.433,13.505a4.225,4.225,0,0,1-4.113,2.326c-2.011,0-5.384-1.265-5.384-7.137,0-1.581.285-7.178,5.2-7.178a4.2,4.2,0,0,1,4.152,2.517l2.8-1.17c-1.726-2.873-4.838-3.543-7.064-3.543-5.672,0-8.413,4.563-8.413,9.6,0,4.355,2.376,9.208,8.672,9.208a7.537,7.537,0,0,0,6.789-3.516ZM127.4,65.573h9.443c-.264-4.657-2.95-5.447-4.741-5.447C129.542,60.125,127.732,62,127.4,65.573Zm11.9,7.347a7.42,7.42,0,0,1-6.862,3.722c-5.262,0-8.289-3.572-8.289-9.564,0-6.687,4.417-9.248,8.174-9.248,3.266,0,6.4,1.806,7.452,6.278a16.23,16.23,0,0,1,.335,3.612h-12.79c-.08,2.975,1.171,6.741,5.377,6.671a4.231,4.231,0,0,0,3.7-2.031Zm22.078-7.347h9.444c-.264-4.657-2.95-5.447-4.741-5.447C163.524,60.125,161.713,62,161.378,65.573Zm11.905,7.347a7.425,7.425,0,0,1-6.867,3.722c-5.259,0-8.278-3.572-8.278-9.564,0-6.687,4.412-9.248,8.167-9.248,3.271,0,6.4,1.806,7.452,6.278a16.2,16.2,0,0,1,.336,3.612H161.3c-.075,2.975,1.175,6.741,5.381,6.671a4.231,4.231,0,0,0,3.7-2.031Zm33.963,3.413-3.112.015a20.2,20.2,0,0,1-.354-2.626,7.665,7.665,0,0,1-5.963,2.875c-3.46,0-6.027-2.055-6.027-5.062a4.832,4.832,0,0,1,.791-2.674c1.02-1.507,2.906-2.711,8.207-3.127l2.821-.225v-.45c0-1.846,0-4.932-3.976-4.932-2.5,0-3.351,1.21-3.636,2.306l-2.75-1.15a2.553,2.553,0,0,1,.144-.29c1.056-1.955,3.132-3.161,6.133-3.161a8.877,8.877,0,0,1,5.181,1.506c1.981,1.5,1.932,4.466,1.932,4.466l.124,9.133A13.855,13.855,0,0,0,207.246,76.333Zm-4.088-4.913c.45-.98.486-1.39.486-3.991-1.161.186-2.737.415-4.662.825-3.306.72-3.871,1.961-3.871,3.206,0,1.431,1.129,2.637,3.345,2.637A4.844,4.844,0,0,0,203.158,71.419Zm-99.376,4.913-3.111.015a20.2,20.2,0,0,1-.356-2.626A7.682,7.682,0,0,1,94.353,76.6c-3.461,0-6.032-2.055-6.032-5.062a4.837,4.837,0,0,1,.789-2.674c1.021-1.507,2.912-2.711,8.214-3.127l2.816-.225v-.45c0-1.846,0-4.932-3.971-4.932-2.5,0-3.346,1.21-3.641,2.306l-2.751-1.15c.045-.1.1-.2.144-.29,1.061-1.955,3.132-3.161,6.138-3.161a8.873,8.873,0,0,1,5.177,1.506c1.981,1.5,1.941,4.466,1.941,4.466l.114,9.133A14.215,14.215,0,0,0,103.782,76.333ZM99.69,71.419c.45-.98.491-1.39.491-3.991-1.165.186-2.736.415-4.662.825-3.311.72-3.877,1.961-3.877,3.206,0,1.431,1.131,2.637,3.351,2.637A4.838,4.838,0,0,0,99.69,71.419Z" transform="translate(-17702.211 -7056.843)" fill="#750140"/><path d="M279.247,52.665c-.465.3-.93.591-1.391.9-5.367-2.983-16.9-8.729-17.9-9.249-1.069-.555-2.936-1.3-2.7-3.08.33-2.494,4.655-7.95,6.492-10.191,9.949-12.167,14.405-15.921,17.362-15.53,3.152.413,4.9,3.669,5.111,18.92-1.756-.543-3.7-1.1-5.767-1.62-.17-2.215-.581-5.559-.74-6.715-.175-1.3-.429-1.8-.955-1.868-.6-.076-2.046,1.316-3.361,2.664-.6.611-2.292,2.322-4.157,4.2-1.56-.1-2.6.224-3.177.983a2.839,2.839,0,0,0-.285,2.5c-1.01,1.006-1.875,1.877-2.425,2.425-2.076,2.07-4.268,3.78-4.381,4.621-.091.684.96,1.4,2.454,2.286C267.077,46.093,276.065,50.954,279.247,52.665ZM293.208,37.44c-3.508-1.219-12.185-4.453-21.339-5.658-3.147-.413-4.415.705-3.115,3.707a48.446,48.446,0,0,0,8.064,11.645c3.47,3.722,7.237,4.721,8.432-1.011.045-.2.085-.409.124-.61a40.286,40.286,0,0,0,.615-4.156c-1.54-.7-3.266-1.445-4.992-2.173.1,1.316.25,3.586.33,5.333.009.225.02.44.025.65.1,2.831-.861,2.821-2.472,1.666-1.875-1.341-7.618-8.928-8.278-12.278-.029-.22.075-.228.189-.192l.141.057c.005,0,.009,0,.015,0h0c1.3.51,5.612,2.213,10,4.06,1.751.738,3.507,1.5,5.087,2.212,1.555.7,2.941,1.359,3.977,1.913,1.895,1.013,2.63,1.7,1.835,2.515-3.947,4.006-17.721,9.7-22.479,16.746,0,0-.019.025-.05.069a2.229,2.229,0,0,0-.154.25c-.015.027-.026.057-.041.081a6.136,6.136,0,0,0-.69,2.092c-.2,1.539.6,2.945,2.811,3.541a10.139,10.139,0,0,0,1.875.354c.119.01.254.021.39.025,4.246.207,15.271-2.21,18.626-3.7,3.467-1.54,2.431-3.07,1.426-3.866-.751-.6-4.611-2.751-6.483-3.787-.5.32-.894.57-1.389.89A53.326,53.326,0,0,1,290.88,61.3c.285.225.129.489-.3.519-.115.01-.211.015-.341.025-3.025.211-8.757.612-11.448.756-.4.025-.841.045-1.086.055A18.16,18.16,0,0,1,279.5,61.2c5.753-4.046,15.347-9.733,18.172-12.179C299.749,47.224,305.43,41.708,293.208,37.44Z" transform="translate(-17754.75 -7048.173)" fill="#ffa600"/></g></svg>