<svg xmlns="http://www.w3.org/2000/svg" width="86.367" height="78.217" viewBox="0 0 86.367 78.217"><g transform="translate(0 0)"><path d="M12.137,68.029l1.671,4.61H10.466Zm-1.43-2.282L6.579,76.463H9.165l.675-1.815h4.6l.675,1.815H17.7L13.567,65.747Z" transform="translate(-6.291 -55.377)" fill="#0b004a"/><path d="M126.769,74.34l1.253-1.783a4.71,4.71,0,0,0,3.406,1.461c1.27,0,1.864-.562,1.864-1.188,0-1.863-6.17-.563-6.17-4.6,0-1.783,1.543-3.261,4.065-3.261a5.963,5.963,0,0,1,4.178,1.493l-1.269,1.7A4.605,4.605,0,0,0,130.978,67c-.963,0-1.509.418-1.509,1.06,0,1.687,6.152.546,6.152,4.547,0,1.959-1.413,3.438-4.289,3.438a6.189,6.189,0,0,1-4.563-1.7" transform="translate(-101.577 -54.764)" fill="#0b004a"/><path d="M248.122,76.461V68.734l-3.02,7.727h-1l-3.02-7.727v7.727H238.8V65.745H242l2.6,6.7,2.6-6.7h3.214V76.461Z" transform="translate(-190.396 -55.375)" fill="#0b004a"/><path d="M371.321,76.465l-.675-1.815h-4.6l-.675,1.815h-2.587l4.129-10.716h2.86l4.128,10.716Zm-2.972-8.435-1.671,4.611h3.342Z" transform="translate(-288.688 -55.378)" fill="#0b004a"/><path d="M118.361,172.5V150.223h15.761V154.4H123.1v4.675h10.786v4.174H123.1v5.076h11.019V172.5Z" transform="translate(-94.911 -122.348)" fill="#90001a"/><path d="M222.4,172.5l-4.374-7.914h-3.473V172.5H209.81V150.223h10.418c4.641,0,7.513,3.039,7.513,7.179a6.443,6.443,0,0,1-4.908,6.612l5.041,8.481Zm.468-15.126a3.007,3.007,0,0,0-3.306-2.972h-5.009v6.011h5.009a3.02,3.02,0,0,0,3.306-3.039" transform="translate(-167.409 -122.348)" fill="#90001a"/><path d="M353.119,285.392c.122-.133-.152-.238-.025-.319a1.162,1.162,0,0,0-.513.23.632.632,0,0,1,.538.088" transform="translate(-280.597 -229.254)" fill="#90001a"/><path d="M266.28,285.064c-.2-.176-.427-.448-.4-.237l.061.2a.474.474,0,0,1,.343.033" transform="translate(-211.856 -228.997)" fill="#90001a"/><path d="M397.313,289.482c.117.024.086-.177.106-.211-.2.033-.1.263-.106.211" transform="translate(-316.041 -232.582)" fill="#90001a"/><path d="M386.92,291.677l.038-.078-.3.182Z" transform="translate(-307.614 -234.427)" fill="#90001a"/><path d="M379.154,291.251c.155.346.66-.021.977.116l.05.079.16-.264a3.789,3.789,0,0,1-1.187.069" transform="translate(-301.662 -234.097)" fill="#90001a"/><path d="M374.526,287.759c.054.134-.215.1.224.053-.021-.016-.027-.024-.039-.035a1.127,1.127,0,0,1-.184-.018" transform="translate(-297.966 -231.384)" fill="#90001a"/><path d="M375.434,287.645c.192,0-.12-.117,0,0" transform="translate(-298.691 -231.252)" fill="#90001a"/><path d="M370.818,286.972l.258-.1c-.05-.08-.274-.11-.187-.162-.262.051-.212.131-.07.266" transform="translate(-294.961 -230.549)" fill="#90001a"/><path d="M370.056,288.855l.132-.043c-.022-.033-.055-.046-.132.043" transform="translate(-294.449 -232.198)" fill="#90001a"/><path d="M370.977,288.472l-.281.09c.034.057.033.166.129-.031-.027.1.032.006.153-.059" transform="translate(-294.957 -231.948)" fill="#90001a"/><path d="M372.8,288.753c.138.08.319.136.06.239.484-.022.425-.262-.06-.239" transform="translate(-296.624 -232.17)" fill="#90001a"/><path d="M378.624,293.032l.183.108.169-.1c-.084.052-.359-.11-.352,0" transform="translate(-301.241 -235.535)" fill="#90001a"/><path d="M363.711,286.824c-.019.071.076.194.092.286l.189-.075c-.093-.053-.274-.1-.281-.211" transform="translate(-289.417 -230.642)" fill="#90001a"/><path d="M363.076,288.206l-.285.113c.249.023.3-.033.285-.113" transform="translate(-288.69 -231.738)" fill="#90001a"/><path d="M369.422,290.01l.469-.235-.557.234Z" transform="translate(-293.876 -232.981)" fill="#90001a"/><path d="M358.1,285.983l.165-.16-.291.24Z" transform="translate(-284.872 -229.849)" fill="#90001a"/><path d="M351.364,286.332a1.419,1.419,0,0,0,.253-.146.738.738,0,0,0-.253.146" transform="translate(-279.63 -230.136)" fill="#90001a"/><path d="M359.708,287.683a.336.336,0,0,0-.211-.213l.1.206.11.007" transform="translate(-286.078 -231.154)" fill="#90001a"/><path d="M359.087,288.395l0-.007-.235-.02.239.027" transform="translate(-285.563 -231.866)" fill="#90001a"/><path d="M360.542,288.5l-.028,0c.01.021.016.027.028,0" transform="translate(-286.885 -231.97)" fill="#90001a"/><path d="M365.037,289.875c-.169.107-.514.216-.192.4.124-.133-.061-.238.192-.4" transform="translate(-290.213 -233.061)" fill="#90001a"/><path d="M361.253,289.253l.294.057c0-.053-.054-.133.029-.186Z" transform="translate(-287.47 -232.466)" fill="#90001a"/><path d="M360.543,289.725l.147-.059-.109-.022Z" transform="translate(-286.908 -232.878)" fill="#90001a"/><path d="M352.132,287.889a.832.832,0,0,1-.43.094,2.249,2.249,0,0,0,.508.079c.027-.062.1-.174-.078-.173" transform="translate(-279.898 -231.486)" fill="#90001a"/><path d="M356.686,288.269l-.029.011c.018.018.032.024.029-.011" transform="translate(-283.826 -231.788)" fill="#90001a"/><path d="M344.207,288.065l.024.037.008-.034Z" transform="translate(-273.956 -231.626)" fill="#90001a"/><path d="M354.153,288.67a.262.262,0,0,0,.279-.063,1.6,1.6,0,0,1-.306.025c-.011.028-.014.046.028.038" transform="translate(-281.815 -232.056)" fill="#90001a"/><path d="M349.254,287.216a1.374,1.374,0,0,0,.217.119c-.063-.066-.191-.171-.217-.119" transform="translate(-277.957 -230.942)" fill="#90001a"/><path d="M356.417,287.915a.087.087,0,0,1,.019-.008c-.04-.045-.036-.023-.019.008" transform="translate(-283.627 -231.481)" fill="#90001a"/><path d="M355.8,288.044a.709.709,0,0,0-.173.117.912.912,0,0,0,.214-.059.243.243,0,0,1-.041-.058" transform="translate(-283.012 -231.609)" fill="#90001a"/><path d="M340.512,289.487a.409.409,0,0,1,.649-.136c.287-.13.124-.751-.113-1.1-.012.081-.015.157-.31.257.1.105.639.262.388.422-.39.084-.316-.078-.5-.182.153.238-.5.321-.429.667l.342-.109c0,.054-.121.134-.029.186" transform="translate(-270.773 -231.77)" fill="#90001a"/><path d="M344.9,287.336l.121-.019a1.071,1.071,0,0,1-.407-.269c-.2.083-.247.152-.263.214l.591.047Z" transform="translate(-274.073 -230.821)" fill="#90001a"/><path d="M348.129,287.965c-.1.2-.392.277-.224.5.353,0,.253-.161.467-.242-.571.03.168-.107-.239-.237a1.471,1.471,0,0,1,.309-.043,1.977,1.977,0,0,1-.291-.1l.013.013h0v0c.023.026.031.042,0,.026a.039.039,0,0,1-.013,0,.279.279,0,0,1-.028.076c-.164-.048-.024-.054.028-.076a.165.165,0,0,0,.008-.03l0,0-.574.091a1.814,1.814,0,0,0,.539.019" transform="translate(-276.639 -231.45)" fill="#90001a"/><path d="M363.616,293.675a.066.066,0,0,1-.017-.048c-.037.024-.052.04.017.048" transform="translate(-289.306 -236.036)" fill="#90001a"/><path d="M361.69,291.3c.042-.026.08-.107.214-.081.114.066,0,.1,0,.165.083-.051.289-.135.039-.243l-.041.027c-.227-.079-.51-.343-.47-.37a1.4,1.4,0,0,0,.259.5" transform="translate(-287.609 -233.793)" fill="#90001a"/><path d="M354.534,291.078l-.478.082.234.185-.008-.107c.268.052.215-.08.251-.161" transform="translate(-281.765 -234.014)" fill="#90001a"/><path d="M343.142,286.752l.071-.213-.284.294Z" transform="translate(-272.943 -230.417)" fill="#90001a"/><path d="M340.449,286.87l.028-.186-.167.107Z" transform="translate(-270.868 -230.531)" fill="#90001a"/><path d="M172.537,297.5l-.139.055a.5.5,0,0,0,.139-.055" transform="translate(-137.75 -239.105)" fill="#90001a"/><path d="M177.847,297.15l.023-.092c-.046.051-.065.088-.023.092" transform="translate(-142.051 -238.755)" fill="#90001a"/><path d="M217.766,291.515l.06.062.136-.2-.2.133" transform="translate(-173.717 -234.256)" fill="#90001a"/><path d="M216.062,295.614l-.268-.132a.953.953,0,0,0,.268.132" transform="translate(-172.153 -237.506)" fill="#90001a"/><path d="M145.92,298.887l-.159.212c.254-.006.14-.109.159-.212" transform="translate(-116.632 -240.205)" fill="#90001a"/><path d="M308.8,286.644a1.289,1.289,0,0,0-.435-.134c.209.122.376.3.435.134" transform="translate(-245.54 -230.393)" fill="#90001a"/><path d="M174.424,286.979c-.085.038-.122.08-.118.127.087-.036.136-.076.118-.127" transform="translate(-139.262 -230.765)" fill="#90001a"/><path d="M305.918,286.139c.03.021.061.032.092.05a1.158,1.158,0,0,1,.415-.038.414.414,0,0,0-.507-.012" transform="translate(-243.602 -230.034)" fill="#90001a"/><path d="M50.033,300.177c-.015-.009-.032-.013-.046-.023,0,.028.017.028.046.023" transform="translate(-40.704 -241.21)" fill="#90001a"/><path d="M21.809,291.094a1.584,1.584,0,0,1,.238-.024.478.478,0,0,0-.238.024" transform="translate(-18.367 -234.003)" fill="#90001a"/><path d="M329,286.765c.131-.01.022-.022,0,0" transform="translate(-261.903 -230.586)" fill="#90001a"/><path d="M331.757,290.8a.132.132,0,0,0-.055.1.169.169,0,0,1,.055-.1" transform="translate(-264.043 -233.792)" fill="#90001a"/><path d="M299.478,292.5h-.011c.037.041.03.033.011,0" transform="translate(-238.487 -235.144)" fill="#90001a"/><path d="M329.308,287.037a.694.694,0,0,0-.166-.065.813.813,0,0,0,.166.065" transform="translate(-262.013 -230.759)" fill="#90001a"/><path d="M329.828,286.751l.114.023c.018-.033,0-.056-.114-.023" transform="translate(-262.557 -230.572)" fill="#90001a"/><path d="M328.124,286.816a.829.829,0,0,1,.211.026c-.025-.015-.035-.026-.028-.033l-.182.007" transform="translate(-261.206 -230.63)" fill="#90001a"/><path d="M101.353,296.2a.323.323,0,0,1-.028-.019c-.13.088-.072.074.028.019" transform="translate(-81.345 -238.058)" fill="#90001a"/><path d="M251.328,296.371a.113.113,0,0,0,.016-.01l-.02-.008Z" transform="translate(-200.321 -238.196)" fill="#90001a"/><path d="M249.078,294.256c.2-.254.314-.222.466-.167l-.153-.592Z" transform="translate(-198.541 -235.932)" fill="#90001a"/><path d="M39.567,287.732l.332.179c-.393.309-.683.208-.37.463.038-.642,1.279-.081,1.317-.724l.218.132c-.062,0-.071.033-.132.026.425.3.308-.468.853-.382.19.046.324.138.2.216l.421-.164c.123.011.094.123-.028.112l.643-.059,0,.02a2.622,2.622,0,0,1,.4-.326c.165.09-.081.069-.038.148l.355-.158c.147.165-.147.329-.394.307.339.638.3-.164,1.017.2l-.335.084c.22.362.481.229.864.452-.091-.118-.767-.566-.38-.729a.455.455,0,0,0,.461-.061c0,.228.207.171.462.156l-.015.3c.276-.089.252-.243.414-.381.307.028.373.262.446.458.492.045-.342-.373.24-.433a1.768,1.768,0,0,0,1.186-.2c.287.1-.049.184.055.271l.252-.243c.063.006.042.079.032.117.214-.094.017-.3.353-.386.088-.333.693.48,1.108.1.1.086-.049.185-.017.3a3.17,3.17,0,0,0,.957-.515l.4.2c-.294-.227.08-.5.408-.717a3.029,3.029,0,0,0-.253-.251l.525-.163c.064.05.011.154-.075.281.035-.026.07-.05.1-.073.188.111.091.285-.042.455-.065-.06-.128-.123-.19-.186a.873.873,0,0,0-.223.564.389.389,0,0,1,.172-.082c-.033.05-.055.1-.039.126s.073-.036.158-.113l.121.337.028-.133.686.21a4.071,4.071,0,0,1,1.7-.979c-.194.247-.042.4-.053.7-.212-.309-.6.133-1.008.071.212.032.165.172.112.221l.721-.282c-.017.239.153.178.34.277-.141-.473.538-.316.831-.461.019.159-.052.321-.41.283.4.356.511-.556.9-.254-.087,0-.134-.021-.17.06.2-.141.7-.03.585.109l-.087,0c.58.057,1.765.014,1.853-.388a3.188,3.188,0,0,1-.113.565l1.041-1.345c-.093.344.252,1.168-.23,1.36a.726.726,0,0,0,.6-.011c-.094-.05-.232-.5-.1-.532.351.386.244.207.677.537-.14-.075.021-.616.243-.6-.035.081.015.534-.067.59l.559-.528c-.139.1-.027.45.1.6-.057-.105.481.012.629-.039l-.234-.125c.626.084.626-.743,1.247-.712-.075.11-.191.675.124.743.147-.272.655-1.306,1.209-1.506l.1.157.425-.171a10.085,10.085,0,0,1-1.422,1.588c.233.126.064.183.415.174.122.148-.193.218-.3.227l.817.105c-.033-.319.629-.31.6-.575l-.891.317c-.033-.318.523-.894,1.1-.831.145.129-.118.565-.107.671.076-.109.552-.2.6-.123l-.248.166c.321.125.532-.413.916-.1.133.022.393.415.419.227a2.948,2.948,0,0,1-.09-1.757,4.414,4.414,0,0,1,.848.537c.217.287-.34.673-.157.92.01-.087.132-.192.184-.225.139.075-.063.268.243.232.056-.321.621.036.148-.27.3-.088.318.071.668.062-.108-.21.327-.7.628-.791a.362.362,0,0,0,.079.238c.612.039.938.185,1.509.2.051.08.325.18.2.317a.545.545,0,0,1,.336-.166c.335.286-.393.033-.14.375.027-.187.461-.247.714-.358-.07-.291-.578-.07-.832.041.007-.4.453-.806,1.054-.976.478-.087.2.263.284.208.89.091.777-.678,1.511-.372.287.261,0,.505.061.689-.388.087-.589-.174-.852-.172l.321.128a.613.613,0,0,1-.525.062c.241.234,1.506.081,2.188.308.125-.082.338-.165.241-.27l-.219.03c-.2-.21.417-.274.144-.376a1.392,1.392,0,0,1,1.038-.229l.069.291c-.006-.084-.264-.178-.381-.093.174-.125.619.407.818.032l-.282-.208c.3-.139.67-.435,1.032-.329-.157-.292-.084.029-.334-.315.213.422-.932-.044-.584.4-.255-.4-.455-.177-.794-.516.009.1.117.185-.187.131a.4.4,0,0,1-.07.082l-.021-.008.018.012c-.014.014-.016.018,0,0a.356.356,0,0,1,.153.149c-.158.215-.645.2-.813.306-.18-.05.08-.108-.017-.212l-.251.164c-.019-.214-.473-.365-.042-.478l-.385-.019a.923.923,0,0,0-.73-.1c-.18-.05-.465.224-.3.062l-.607.117,0-.053c-.6-.041-1.235.322-1.908-.078a1.541,1.541,0,0,1-.745.045l-.063-.184c-.259.061-.771-.2-.884,0-.27-.5-1.25-.126-1.7-.22l-.021.239a3.452,3.452,0,0,0-1,.136l.021.212c-.336.169-.856-.163-1.385-.149.036-.08.171-.057.265-.007-.626-.486-1.336.326-1.9-.024a.329.329,0,0,1-.346,0,.067.067,0,0,0,.035-.011.343.343,0,0,0-.058,0c-.063-.037-.127-.079-.2-.114a.647.647,0,0,0,.166.114,1.772,1.772,0,0,0-.441.081l-.068-.228c-.014,0-.024,0-.038.006-.16-.085-.13.107-.045.278a.789.789,0,0,0-.218.136c-.128-.368-.43.121-.6-.272-.112.19-.824.138-.913.54,0-.053-.054-.079.035-.08a.611.611,0,0,0-.529.019l-.074-.29-.4.386c-.241-.177-.341-.28-.1-.5-.581.338-.472.126-.966.462l.025-.186c-.176.006-.458.255-.564.1-.392-.361-1.949-.056-2.961-.383.2.55-.47-.246-.51.18-.059-.13-.2-.2-.036-.317-.516.128-.776-.206-1.132.155-.059-.132.111-.192.058-.269-.042.028-.164.114-.218.035s.075-.109.157-.166c-.528.022-.58.424-.618.8-.268-.178-.4-.153-.593.1-.093-.124-.249-.252.079-.3-.184-.018-1.127-.179-1.144.123-.059-.076-.258-.023-.306.013a5.006,5.006,0,0,0-.857-.013l.114.049c-.159.365-.337.084-.664.129l.009-.037c-.752-.257-.324.127-1.065-.167l.041.226c-.066.488-.658-.282-1.086-.093l.156.128c-.233.168-.661-.658-.9-.718-.052-.042.08-.069.152-.1-.62-.283-.078.3-.537.37-.086-.16.106-.408-.2-.436-.156-.128-.894.526-1.319.222.1.124.188.245-.024.339-.327.046-.89-.459-1.182-.066a.134.134,0,0,1-.06-.1c-.25.1-.812.177-.96.39-.24-.78-1.551.4-1.554-.322l-.77.048.02-.074a.867.867,0,0,0-.834.309c-.115-.048-.033-.117-.024-.154a1.381,1.381,0,0,0-1.39.262l-.067-.233c-.161.139-1.044-.349-1.746-.064a.161.161,0,0,1,.075-.107c-.788.289-1.91-.616-2.186.241l-.52.22c.679.054-.094.372.187.508-.266.055-.693-.245-.367-.294l.052.041c.112-.446-.844-.143-.832-.445-1.333.047-2.636-.169-3.885-.162l.151.342-.435-.011c-.116-.077-.159-.267.152-.259-.169-.192-.518.174-.525.25-.611-.126.229-.408.041-.412l-.252.031.058.038c-.2.146-.217.3-.59.287-.238-.064-.126-.211-.22-.222,0-.025-.031-.036-.143-.007l-.549-.017.225.268c-.239.141-.516,0-.255.3-.383-.467-2.05-.12-2.282-.262a1.8,1.8,0,0,1-1.089.2c.1.054.176.36-.185.331.115-.635-.664-.258-.967-.7.268.294-1.019.1-.6.521-.3-.043-.024-.236-.256-.379-.706.265-1.576-.115-2.456-.008-.012.084.14.207-.045.335l-.478-.4c-.174.046-.146.484-.473.206.046.069.117.172,0,.2-1.74-.352-3.517.443-5.3-.255.243.152.085.173-.1.186.12.034,0,.2.032.317l-.746-.285c-.122.317-.786.05-.852.351l.23-.062c-.3.364.462.767.433,1.221.332-.413.933.559,1.48-.033.128.088-.1.149-.031.252.137-.2.309-.245.633-.169l-.034.049a11.124,11.124,0,0,1,2.315.194l-.082-.22a.754.754,0,0,1,.372.144c.239-.347-.614,0-.4-.38.305.446,1.54-.042,1.752.47.336-.008-.106-.256.229-.264l.093.137.08-.184a.382.382,0,0,1,.349.313c-.054-.013-.151.038-.208.05.29.156.8-.08.9-.029l-.326-.077a18.394,18.394,0,0,0,2.913-.315l-.07-.1c.672-.214.545.1,1.285-.01l-.025.025a.869.869,0,0,1,.546-.16c-.184.128.359.231.117.375.728-.229.358-.174.833-.579l.116.173a.677.677,0,0,1,.542-.3c-.3.158.243.261-.092.468.788.364,1.146-.416,1.516.135.346-.493-.68-.252-.482-.361-.172-.154.286-.37.532-.327.249,0,.437.609,1.062.585-.063,0-.066.036-.127.035.236.119.454-.178.746.018.154-.3.373.009.411-.366l-.572.1c.323-.1.618-.548,1.158-.347a.9.9,0,0,1-.306.236c.16.107.3-.079.466.03-.038.375-.7.1-1.037.388.172.155.653-.284.487.125.239-.521.617.051,1.032-.351l-.023.225a.72.72,0,0,1,.326-.142l-.217.3c.337-.255.665.2.99.061-.687.022-.16-.267-.454-.424.842-.319.5.576,1.448.448-.127.034-.486-.125-.286-.234a1.234,1.234,0,0,1,.535.239c.628-.06-.1-.229.164-.373.22.269.308-.118.581-.21l.007.228c.72.134.181-.478.831-.313l-.268.321.336-.087-.065.261a.943.943,0,0,1,.837-.084c-.086-.159.04-.415.358-.427.219.132-.118.219.332.178-.1.144-.208.326-.407.119-.02.075-.1.145-.118.219.236.152.587.025.75.021a.392.392,0,0,1-.177-.05l.648-.327c.1.084.023.154-.056.223.132-.027.222-.132.416-.156-.047.186-.033.378-.306.469l.619-.216c.043.079.323.216.243.285.346.1.84-.375,1.3-.238a.275.275,0,0,1,.168-.1c.431.035.815.258,1.32,0l.294.329c.4-.081-.4-.414.266-.547.469-.112.179.28.345.371.231-.17.635-.516,1.07-.251-.142.065-.255.017-.388.043" transform="translate(-8.455 -229.191)" fill="#90001a"/><path d="M183.814,296.6c-.1.048-.284.2-.355.064.106-.262.191-.137.355-.064" transform="translate(-146.519 -238.319)" fill="#90001a"/><path d="M220.1,293.919c-.071.075-.18.038-.305-.048a.447.447,0,0,1,.305.048" transform="translate(-175.328 -236.221)" fill="#90001a"/><path d="M321.516,287.356l-.01.011c-.212-.094-.137-.057.01-.011" transform="translate(-255.854 -231.026)" fill="#90001a"/><path d="M323.341,287.7a.064.064,0,0,0,.025-.1c-.032.058-.132.059-.245.04.03.061.086.1.22.055" transform="translate(-257.24 -231.264)" fill="#90001a"/><path d="M94.66,289.011l.087.058c-.192.07-.139.01-.087-.058" transform="translate(-76.082 -232.376)" fill="#90001a"/><path d="M216.926,295.174a.275.275,0,0,1-.041-.124c-.037.038-.038.082.041.124" transform="translate(-172.999 -237.164)" fill="#90001a"/><path d="M146.558,298.69a.082.082,0,0,0-.016,0,.136.136,0,0,0-.014.041Z" transform="translate(-117.242 -240.048)" fill="#90001a"/><path d="M290.279,296.263a.36.36,0,0,1-.174-.121c-.006.056.035.1.174.121" transform="translate(-231.066 -238.029)" fill="#90001a"/><path d="M334.467,286.473l-.285.053a.372.372,0,0,1,.253.08c0-.053-.057-.131.032-.133" transform="translate(-266.008 -230.364)" fill="#90001a"/><path d="M346.876,293.184c.042-.026.087,0,.129-.026l-.008-.106c-.177,0-.3.081-.122.132" transform="translate(-276.002 -235.58)" fill="#90001a"/><path d="M336.717,289.859c.017.192.2.134.4.106a.14.14,0,0,1-.035,0c.066-.266-.147-.184-.361-.1" transform="translate(-268.019 -232.986)" fill="#90001a"/><path d="M338.851,290.445a.606.606,0,0,1,.183,0c.026-.107-.074-.025-.183,0" transform="translate(-269.71 -233.472)" fill="#90001a"/><path d="M326.2,286.643c.093.052.066-.244.117-.165.112-.241-.636.28-.117.165" transform="translate(-259.533 -230.317)" fill="#90001a"/><path d="M336.708,292.317l-.064-.239-.118.187Z" transform="translate(-267.867 -234.807)" fill="#90001a"/><path d="M329.867,292.064l.315.073c0-.039.037-.062.087-.079-.2-.013-.408-.065-.4.006" transform="translate(-262.588 -234.768)" fill="#90001a"/><path d="M331.809,292.048a.447.447,0,0,0,.256-.033,1.018,1.018,0,0,0-.256.033" transform="translate(-264.128 -234.757)" fill="#90001a"/><path d="M334.093,293.23l-.092-.052-.224-.023Z" transform="translate(-265.688 -235.662)" fill="#90001a"/><path d="M312.067,291.582l-.347.06c-.037.079.056.132.185.1.084-.055.214-.083.162-.163" transform="translate(-248.195 -234.414)" fill="#90001a"/><path d="M317.77,294.13c-.092-.051-.1-.1-.148-.183l-.018.293Z" transform="translate(-252.866 -236.289)" fill="#90001a"/><path d="M312.559,295.045c-.036.08-.507.222-.069.214.037-.08.384-.139.069-.214" transform="translate(-248.665 -237.159)" fill="#90001a"/><path d="M288.425,290.955l.087,0,0-.48Z" transform="translate(-229.733 -233.534)" fill="#90001a"/><path d="M266.057,296.69c.408.118.1-.3.469-.15.1-.113-.3-.12-.2-.217-.248.119-.378.05-.267.367" transform="translate(-211.969 -238.173)" fill="#90001a"/><path d="M267.495,296.043a.753.753,0,0,0,.127-.073.4.4,0,0,0-.127.073" transform="translate(-213.14 -237.893)" fill="#90001a"/><path d="M16.071,289.794l-.269-.09.177.155Z" transform="translate(-13.604 -232.925)" fill="#90001a"/><path d="M13.865,290.79l-.075-.3-.148.284c.06-.016.175-.047.223.021" transform="translate(-11.892 -233.545)" fill="#90001a"/><path d="M187.934,299.268l.019-.074c-.041-.079-.1-.085-.226-.1Z" transform="translate(-149.902 -240.372)" fill="#90001a"/><path d="M171.267,297.933l.062.006-.119-.277Z" transform="translate(-136.808 -239.234)" fill="#90001a"/><path d="M157.024,300.271c.122.01.266-.054.388-.044-.266.054-.426-.3-.388.044" transform="translate(-125.558 -241.182)" fill="#90001a"/><path d="M368.562,147.165c.114.021.073-.274.09-.328-.2.075-.084.406-.09.328" transform="translate(-293.243 -119.663)" fill="#0a0140"/><path d="M359.355,151.978l.012-.125-.209.333Z" transform="translate(-285.81 -123.64)" fill="#0a0140"/><path d="M352.263,152.5c.294.418.557-.237.894-.144l.074.1.04-.43c-.346.16-.73.519-1.008.474" transform="translate(-280.344 -123.778)" fill="#0a0140"/><path d="M346.19,150.711c.132.161-.132.23.236-.023a.33.33,0,0,1-.057-.032.817.817,0,0,1-.179.055" transform="translate(-275.529 -122.691)" fill="#0a0140"/><path d="M346.857,150.383c.177-.08-.18-.11,0,0" transform="translate(-276.015 -122.418)" fill="#0a0140"/><path d="M342.5,151.414l.154-.269c-.1-.083-.316-.007-.275-.12-.2.2-.094.28.122.388" transform="translate(-272.419 -122.984)" fill="#0a0140"/><path d="M343.136,154.455l.081-.122c-.042-.034-.08-.034-.081.122" transform="translate(-273.107 -125.591)" fill="#0a0140"/><path d="M343.7,153.149l-.178.26c.069.057.143.2.087-.1.045.144.03-.008.09-.155" transform="translate(-273.415 -124.667)" fill="#0a0140"/><path d="M345.209,152.767c.172.04.355.029.207.294.192-.135.246-.263.2-.339s-.2-.092-.4.045" transform="translate(-274.751 -124.282)" fill="#0a0140"/><path d="M352.646,156.4l.2.085c.027-.072.056-.136.086-.2-.046.091-.346-.027-.287.119" transform="translate(-280.641 -127.147)" fill="#0a0140"/><path d="M336.073,155.551c.046.1.23.2.32.3l.091-.2c-.12-.013-.312.026-.411-.1" transform="translate(-267.508 -126.572)" fill="#0a0140"/><path d="M337.116,157.007l-.131.3c.217-.109.208-.2.131-.3" transform="translate(-268.231 -127.726)" fill="#0a0140"/><path d="M343.915,155.444c.068-.177.139-.355.217-.535-.1.194-.2.386-.287.576Z" transform="translate(-273.668 -126.063)" fill="#0a0140"/><path d="M331.7,157.439l-.023-.3,0,.471Z" transform="translate(-264.024 -127.834)" fill="#0a0140"/><path d="M327.442,159.695c-.046-.235-.355-.15-.344-.331a1.047,1.047,0,0,0-.132.627c.056-.173.2-.275.477-.3" transform="translate(-260.287 -129.594)" fill="#0a0140"/><path d="M326.818,162.725a1.756,1.756,0,0,0,.019-.337.685.685,0,0,0-.019.337" transform="translate(-260.162 -131.992)" fill="#0a0140"/><path d="M333.679,159.086a.448.448,0,0,0-.358-.117l.27.177.088-.06" transform="translate(-265.326 -129.276)" fill="#0a0140"/><path d="M333.883,159.854l-.009-.006-.2.126.2-.12" transform="translate(-265.61 -129.978)" fill="#0a0140"/><path d="M335.07,159.486l-.022.015c.026.018.036.023.022-.015" transform="translate(-266.695 -129.691)" fill="#0a0140"/><path d="M340.375,157.939c-.049.228-.215.541.176.605-.016-.232-.243-.267-.176-.605" transform="translate(-270.858 -128.465)" fill="#0a0140"/><path d="M336.73,159.241l.263-.109c-.048-.063-.156-.129-.14-.244Z" transform="translate(-268.029 -129.217)" fill="#0a0140"/><path d="M336.3,160.753l.053-.159-.1.04Z" transform="translate(-267.654 -130.569)" fill="#0a0140"/><path d="M328.86,163.173a.605.605,0,0,1-.193.4,1.487,1.487,0,0,0,.427-.267c-.047-.085-.109-.261-.233-.132" transform="translate(-261.636 -132.578)" fill="#0a0140"/><path d="M332.039,161.655c0,.011-.008.021-.01.032.029.008.044,0,.01-.032" transform="translate(-264.302 -131.411)" fill="#0a0140"/><path d="M323.852,170.649l.058.015-.038-.036Z" transform="translate(-257.819 -138.523)" fill="#0a0140"/><path d="M330.787,163.1c.129-.038.133-.142.124-.26a1,1,0,0,1-.182.236c.022.038.039.061.058.024" transform="translate(-263.271 -132.352)" fill="#0a0140"/><path d="M325.918,165.808a1.467,1.467,0,0,0,.269-.046c-.113-.021-.311-.025-.269.046" transform="translate(-259.452 -134.656)" fill="#0a0140"/><path d="M331.461,161.51a.083.083,0,0,1,.006-.023c-.074-.023-.049,0-.006.023" transform="translate(-263.819 -131.27)" fill="#0a0140"/><path d="M331.576,161.634a.822.822,0,0,0,0,.25.739.739,0,0,0,.087-.214.342.342,0,0,1-.085-.036" transform="translate(-263.935 -131.394)" fill="#0a0140"/><path d="M325.376,172.289c-.22-.174-.253-.563.127-.571-.022-.321-.818-.8-1.372-.919.092.082.178.155.147.474.182.011.639-.256.7.081-.091.363-.246.163-.468.212.364.1.153.645.625.873l.019-.33c.068.043.111.2.217.179" transform="translate(-258.041 -138.66)" fill="#0a0140"/><path d="M323.922,168.467l.052-.109a1.228,1.228,0,0,1-.562.06.482.482,0,0,0,.109.41l.189-.217.206-.2Z" transform="translate(-257.469 -136.725)" fill="#0a0140"/><path d="M326.48,165.525c.158.28.075.564.428.668.2-.251-.034-.342.005-.581-.307.448-.016-.234-.4-.067a.8.8,0,0,1,.146-.273,2.2,2.2,0,0,1-.3.111l.022,0v0l0,0c.044.009.066.02.032.024,0,0,0,.011,0,.014a.544.544,0,0,1,.066.1c-.154.075-.074-.036-.066-.1-.01-.012-.017-.025-.029-.037h0l-.251.525a1.159,1.159,0,0,0,.351-.387" transform="translate(-259.625 -134.279)" fill="#0a0140"/><path d="M341.911,164.008a.137.137,0,0,1-.052-.052c-.006.048,0,.075.052.052" transform="translate(-272.093 -133.235)" fill="#0a0140"/><path d="M338.432,162.2c.007-.054-.035-.171.082-.206.136.025.078.124.138.2.014-.1.092-.313-.178-.322l-.008.053a1.188,1.188,0,0,1-.655-.192,3.177,3.177,0,0,0,.62.462" transform="translate(-268.886 -131.475)" fill="#0a0140"/><path d="M333.73,165.1l-.219.4.335.053-.113-.112c.218-.114.052-.228,0-.341" transform="translate(-265.477 -134.145)" fill="#0a0140"/><path d="M322.291,169.538l-.217-.248c.064.167.13.331.2.494Z" transform="translate(-256.41 -137.463)" fill="#0a0140"/><path d="M320.689,172.261l-.217-.178.043.227Z" transform="translate(-255.14 -139.677)" fill="#0a0140"/><path d="M394.583,237.909l.028-.12a.274.274,0,0,0-.028.12" transform="translate(-313.894 -191.768)" fill="#0a0140"/><path d="M391.791,240.3l.062.125c-.014-.08-.033-.134-.062-.125" transform="translate(-311.68 -193.757)" fill="#0a0140"/><path d="M321.856,240.144c-.094.312-.273.75-.039.535l.2-.238a.327.327,0,0,1-.166-.3" transform="translate(-256.115 -193.635)" fill="#0a0140"/><path d="M363.93,254.433l-.04-.1c-.052.1-.1.195-.143.281.056-.053.119-.12.183-.186" transform="translate(-289.448 -204.888)" fill="#0a0140"/><path d="M365.688,248.706l.183.207a.736.736,0,0,0-.183-.207" transform="translate(-290.986 -200.423)" fill="#0a0140"/><path d="M403.739,222.441l-.236-.231c-.07.148.1.153.236.231" transform="translate(-320.952 -179.418)" fill="#0a0140"/><path d="M311.124,200.828a.9.9,0,0,0-.208.414c.187-.2.46-.337.208-.414" transform="translate(-247.564 -162.466)" fill="#0a0140"/><path d="M402.687,251a.214.214,0,0,0-.021-.219c-.035.092-.038.169.021.219" transform="translate(-320.281 -202.065)" fill="#0a0140"/><path d="M310.34,203.325c.032-.03.049-.06.076-.09a.755.755,0,0,1-.054-.409c-.139.146-.228.326-.022.5" transform="translate(-247.012 -164.05)" fill="#0a0140"/><path d="M390.771,159.83a.258.258,0,0,1,0-.048c-.031.028-.021.04,0,.048" transform="translate(-310.856 -129.926)" fill="#0a0140"/><path d="M377.1,136.641a.842.842,0,0,1,.235.022c-.036-.032-.107-.042-.235-.022" transform="translate(-300.037 -111.571)" fill="#0a0140"/><path d="M315.184,182.707c.037-.125-.022-.032,0,0" transform="translate(-250.944 -148.049)" fill="#0a0140"/><path d="M321.786,182.789a.259.259,0,0,0,.114.108.335.335,0,0,1-.114-.108" transform="translate(-256.182 -148.165)" fill="#0a0140"/><path d="M320.229,210.519v.01c.059-.038.047-.031,0-.01" transform="translate(-254.947 -170.135)" fill="#0a0140"/><path d="M315.635,182.373a.629.629,0,0,0-.154.112.691.691,0,0,0,.154-.112" transform="translate(-251.183 -147.835)" fill="#0a0140"/><path d="M315.529,181.776c.033-.035.054-.064.076-.09-.039-.036-.075-.036-.076.09" transform="translate(-251.22 -147.274)" fill="#0a0140"/><path d="M314.948,183.1a.429.429,0,0,1,.11-.182c-.029.015-.05.018-.057.008-.014.035-.028.087-.053.174" transform="translate(-250.761 -148.264)" fill="#0a0140"/><path d="M412.185,191.642a.2.2,0,0,1,.025-.027c-.148-.076-.117-.035-.025.027" transform="translate(-327.787 -155.129)" fill="#0a0140"/><path d="M343.007,239.5c-.006,0-.012.005-.018.006l0,.016Z" transform="translate(-272.991 -193.121)" fill="#0a0140"/><path d="M341.723,239.576c-.337.225-.38.134-.418.006q-.227.383-.445.773.443-.381.863-.779" transform="translate(-271.302 -193.185)" fill="#0a0140"/><path d="M324.465,155.678l-.36-.016c-.161-.5.075-.519-.354-.63.36.32.234.491.111.665s-.258.332.06.693l-.25-.048c.038-.022,0-.068.042-.088-.523-.152.312.664-.081.824-.158.024-.318-.03-.316-.174l-.1.369c-.082.038-.163-.111-.083-.147-.108.107-.207.232-.326.329l-.013-.025a2.457,2.457,0,0,1,.009.56c-.176-.055,0-.12-.091-.2l-.105.337a.324.324,0,0,1,.013-.541c-.354-.347-.36-.273-.377-.132s-.038.357-.4.207c.05-.071.1-.133.148-.209-.386-.412-.451-.171-.81-.372.061.069.26.21.437.372s.331.343.261.509c-.1-.03-.206-.02-.26.222-.145-.317-.229-.16-.391-.088l-.16-.424c-.124.182-.026.393-.062.624-.221.033-.374-.285-.51-.549-.328.045.393.458.041.672-.328-.1-.46.131-.751.483-.234-.124-.019-.278-.117-.394l-.112.383c-.046,0-.05-.114-.053-.171-.128.161.066.448-.166.608,0,.252-.159.092-.333-.056s-.37-.32-.507-.027c-.082-.126.022-.28-.011-.454a4.3,4.3,0,0,0-.7.785l-.29-.313c.2.351-.093.739-.4,1.054a3.074,3.074,0,0,0,.184.388,4.663,4.663,0,0,1-.479.206c-.046-.081.019-.229.111-.407-.034.033-.067.066-.093.1-.139-.19-.021-.437.113-.673.041.1.082.2.124.3a2,2,0,0,0,.249-.833.292.292,0,0,1-.14.116.373.373,0,0,0,.046-.184c-.009-.049-.058.049-.135.162l-.034-.516-.043.2-.447-.389-.337.37a4.35,4.35,0,0,1-.372.351,1.508,1.508,0,0,1-.91.4c.26-.3.212-.567.353-.982.022.49.5-.077.75.088-.139-.086-.056-.281,0-.343q-.3.141-.617.279c.115-.341-.033-.281-.111-.475-.122.711-.524.311-.815.437.077-.225.219-.434.442-.29-.041-.3-.2-.135-.372.034s-.352.334-.393.064c.062.024.081.073.152-.026-.227.125-.5-.193-.326-.339l.06.024a1.665,1.665,0,0,0-.337-.19,1.78,1.78,0,0,0-.408-.17.761.761,0,0,0-.785.163c.042-.066.46-.563.547-.649a15.165,15.165,0,0,1-1.876,1.128c.379-.364.95-1.473,1.416-1.493-.035-.119-.081-.247-.35-.256,0,.1-.353.69-.458.659a4.3,4.3,0,0,0,.153-.941c0,.151-.641.665-.758.524.1-.069.552-.58.656-.6-.29.106-.565.178-.86.254.179-.018.5-.451.61-.669-.087.136-.221-.265-.353-.29l-.024.245c-.115-.2-.388-.123-.692-.041s-.616.16-.754-.059c.174-.042.911-.474.855-.715a8.849,8.849,0,0,1-1.165.352,2.219,2.219,0,0,1-1.29,0l.159-.2-.4-.225c.334-.029.837-.035,1.361-.079s1.012-.091,1.3-.1c.069-.244.208-.187.062-.388a.263.263,0,0,1,.4-.007l-.164-.538c-.406.253-.608-.167-.958.023a5.637,5.637,0,0,0,.731.332,1.623,1.623,0,0,1-.856.214c-.3-.013-.58-.13-.643-.358.123-.183.808-.279.945-.358-.168.023-.468-.231-.363-.318.1.025.2.047.3.065.074-.27-.721-.126-.4-.55-.006-.106.483-.456.212-.385a8.505,8.505,0,0,1-2.482.878,3.112,3.112,0,0,1,.561-.942c.371-.27,1.052.012,1.37-.225a.752.752,0,0,1-.366-.049c.081-.128.4-.052.288-.257-.494.068-.042-.468-.426-.021-.173-.2.061-.26,0-.52a1.473,1.473,0,0,1-1.263-.347.907.907,0,0,0,.35-.1,2.7,2.7,0,0,1,.116-.646c.026-.1.05-.188.068-.287a1.633,1.633,0,0,0,.052-.317c.12-.04.272-.251.475-.149-.081-.066-.242-.135-.247-.276.429-.234.05.31.561.141-.275-.032-.384-.377-.514-.594-.216,0-.267.117-.216.259a1.582,1.582,0,0,0,.255.4,1.659,1.659,0,0,1-.857-.3,1.606,1.606,0,0,1-.343-.318,1.428,1.428,0,0,1-.21-.4c-.081-.45.41-.124.337-.211a.6.6,0,0,0-.04-.465,1.423,1.423,0,0,0-.242-.331c-.177-.2-.313-.392-.017-.67.432-.153.729.206,1.007.226.058.355-.36.426-.4.655l.244-.228c.1.133.137.362,0,.454.194-.066.287-.363.389-.706a2.428,2.428,0,0,1,.2-.511,1.358,1.358,0,0,1,.3-.409c-.09-.142-.134-.354-.31-.339a1.717,1.717,0,0,0-.019.191c-.35.047-.263-.493-.486-.326-.092-.317-.263-.74.058-1l.414.14c-.114-.054-.334.1-.261.25-.053-.112.14-.175.29-.254s.275-.167.07-.383l-.4.076c-.056-.331-.267-.872.033-1.1-.443-.1,0,.092-.556.042.644.139-.5.774.254.8-.645-.063-.416.272-1.018.363.134.052.3.008.106.251a.666.666,0,0,1,.086.112.107.107,0,0,1-.019.014l.023-.008c.013.021.017.024.007,0a.485.485,0,0,1,.264-.046.616.616,0,0,1,.116.465.971.971,0,0,0,.036.423c-.122.134-.129-.126-.3-.094l.159.306c-.3-.092-.658.263-.691-.193l-.142.354a.613.613,0,0,0-.305.667c-.113.162.23.521.026.314l.024.31.051.309-.079-.009a3.262,3.262,0,0,0,.042.911,1.027,1.027,0,0,1-.274.943,1.189,1.189,0,0,1,.1.725l-.271.075c.111.246-.242.8.074.877-.348.179-.34.51-.251.842s.3.658.286.9l.352-.075a1.445,1.445,0,0,0,.168.437,3.265,3.265,0,0,0,.335.433l.292-.127c.177.106.192.312.192.556a1.518,1.518,0,0,0,.138.74c-.125.022-.153-.11-.125-.223-.189.424.063.682.356.875s.6.353.53.73a.234.234,0,0,1,.187.275.052.052,0,0,0-.033-.018.236.236,0,0,0,.03.048,2.309,2.309,0,0,0-.023.253.706.706,0,0,0,.041-.229,1.151,1.151,0,0,0,.354.264l-.229.262c.012.008.018.017.03.024,0,.2.2,0,.354-.224a.771.771,0,0,0,.283.033c-.35.452.4.177.076.692.281-.113.686.435,1.173.039-.051.06-.044.116-.107.066.074.161.153.326.375.3l-.233.374c.222-.065.432-.127.65-.2,0,.333-.008.517-.4.641.75-.079.478.117,1.132-.032l-.177.219c.141.087.564-.1.521.144.014.316.386.588.862.813a5.531,5.531,0,0,1,1.394.858c.041-.426.113-.294.211-.146s.226.323.329.019c0,.2.1.342-.093.467.525-.064.671.5,1.112.013.023.2-.155.266-.126.388.048-.035.187-.143.22-.021s-.1.151-.194.223c.532.049.655-.543.758-1.1.206.307.343.268.542-.091.068.188.2.389-.106.439.162.031,1.046.337,1.056-.143.055.113.237.022.279-.033a2.52,2.52,0,0,0,.78-.022c-.036-.019-.073-.038-.109-.062.087-.558.284-.164.569-.272v.056c.365.144.433.085.5.035s.121-.1.5.035l-.115-.322c-.055-.363.1-.292.326-.18s.514.266.651.06l-.191-.137c.059-.154.271.033.513.255s.512.478.638.48c.071.041-.036.121-.086.19.734.181-.085-.428.271-.7.173.184.15.605.446.513.11.055.232-.219.383-.473s.317-.514.613-.418c-.174-.111-.338-.228-.24-.449.112-.107.38-.066.618-.082s.423-.12.36-.436a.244.244,0,0,1,.131.083c.05-.131.165-.3.254-.468a.763.763,0,0,0,.079-.534c.463.368.656.016.777-.328s.188-.682.6-.325l.221-.289.2-.307.075.082a.667.667,0,0,0,.1-.889c.116-.048.16.073.2.112.266-.226.4-.365.445-.539a1.374,1.374,0,0,0-.12-.751l.338.109c-.058-.115.17-.268.4-.5a1.06,1.06,0,0,0,.358-.948.258.258,0,0,1,.125.121c-.051-.415.271-.78.508-1.139a1.579,1.579,0,0,0,.14-.263.52.52,0,0,0,.021-.252c-.032-.162-.165-.305-.471-.421l-.241-.516c-.188.586-.537-.154-.786.064-.028-.223.435-.548.488-.259l-.066.039c.658.173.275-.73.727-.7.023-.621.063-1.2.116-1.793a7.646,7.646,0,0,0-.035-1.75l-.486.222-.041-.385c.1-.123.373-.221.4.063.265-.207-.341-.413-.451-.392.083-.582.637.075.613-.09l-.09-.219-.047.065c-.247-.136-.467-.1-.531-.426.046-.232.28-.19.277-.278.036-.009.045-.041-.02-.129l-.106-.494-.331.313c-.257-.149-.116-.446-.49-.09.293-.264.2-.723.044-1.135s-.394-.777-.333-.917a1.132,1.132,0,0,1-.67-.759c-.031.122-.413.383-.511.087.89-.365.075-.7.512-1.288-.253.439-.609-.721-.937-.05-.088-.262.285-.214.348-.512a1.576,1.576,0,0,1-.677-.832,2.647,2.647,0,0,0-.7-.992c-.1.079-.14.31-.39.317.047-.246.086-.493.121-.747-.165-.071-.589.425-.528-.091-.036.108-.1.266-.2.226a3.738,3.738,0,0,0-1.927-1.489,6.31,6.31,0,0,1-2.231-1.4c.177.292.015.276-.159.244.1.083-.069.3-.083.47-.189-.2-.393-.392-.611-.585-.1.224-.285.213-.467.2s-.358-.01-.4.209l.223-.071a1.051,1.051,0,0,0,.023.875,2.284,2.284,0,0,1,.14,1c.162-.29.314-.043.46.179s.291.422.606.052c.051.155-.133.193-.127.356.173-.259.32-.269.5-.078l-.048.061c.639.157.79.546,1.3,1.066l.129-.314c.112.122.083.226.1.335.431-.331-.362-.255.073-.647a.442.442,0,0,0,.073.4,1.343,1.343,0,0,0,.293.271c.214.172.409.362.215.7.178.161.193-.346.377-.181l-.087.2.224-.163c.1.139-.025.392-.142.525-.014-.041-.11-.039-.152-.052-.022.317.472.326.463.441-.022-.086-.044-.173-.071-.255a3.082,3.082,0,0,1,.79.727,2.355,2.355,0,0,0,.858.708l.1-.132c.532.275.089.438.5.854l-.043,0a.443.443,0,0,1,.4.264c-.231-.037-.187.408-.458.34.535.347.34.125,1.041.208l-.2.192c.268.018.386-.024.571.223-.305-.131-.292.327-.675.2a.5.5,0,0,0,.239.662c.168.129.289.243-.063.508.782.027.207-.628.405-.533.178-.211.589.034.587.248.05.2-.776.611-.633,1.059-.009-.047-.063-.034-.071-.081-.134.22.335.275.1.561.454.019.037.281.593.2-.077-.137-.148-.275-.229-.408.2.2.906.308.67.8a1.041,1.041,0,0,1-.383-.177c-.14.152.151.213.007.37-.556.066-.219-.513-.7-.677-.2.173.508.4-.117.4.793.035,0,.467.624.687l-.336.03c.059.041.231.123.236.218l-.456-.1c.409.2-.257.524-.033.738-.063-.5.391-.156.612-.4.516.608-.832.456-.629,1.13-.052-.09.179-.365.344-.225a.806.806,0,0,1-.358.407c.079.459.344-.08.555.115-.406.167.177.231.293.438l-.342-.006c-.246.5.7.171.416.637-.154-.082-.308-.161-.463-.236l.111.251-.385-.084c.273.28.166.359.027.589.246-.022.608.127.583.369-.228.119-.294-.146-.318.182-.186-.117-.437-.242-.11-.322-.108-.034-.2-.108-.307-.14a.247.247,0,0,0-.153.249c-.008.093.015.188,0,.242a.2.2,0,0,1,.108-.1c.117.179.232.366.344.562-.142.037-.227-.048-.31-.13.013.1.148.205.142.35-.256-.117-.532-.2-.614-.408l.1.245.073.246c-.124-.011-.387.091-.465.006-.115.077-.034.251.033.443s.091.384-.072.477a.25.25,0,0,1,.08.169c-.174.253-.621.273-.47.777-.176-.034-.34-.067-.518-.113-.07.279.683.137.555.616-.074.363-.416-.153-.594-.147a1.772,1.772,0,0,1,.145.519c0,.166-.088.3-.339.271,0-.136.1-.144.14-.237m-2.567,2.28c.03-.094.045-.346.184-.188.115.379-.031.24-.184.188m-5.286,1.622c.071-.1.145-.036.225.107a.212.212,0,0,1-.225-.107m-9.958-12.738a.115.115,0,0,0,.014.015c-.18.164-.111.107-.014-.015m.273-.362a.127.127,0,0,0-.128-.066c.072.056.045.147-.015.243.1,0,.173-.034.143-.177m22.054-.9-.066.1c-.14-.142-.042-.119.066-.1" transform="translate(-243.374 -110.763)" fill="#0a0140"/><path d="M365.564,249.411a.691.691,0,0,1,.016.186.152.152,0,0,0-.016-.186" transform="translate(-290.888 -200.982)" fill="#0a0140"/><path d="M404.746,223.372s0,0,.008-.007a.264.264,0,0,0-.051-.036Z" transform="translate(-321.916 -180.305)" fill="#0a0140"/><path d="M327.213,216.037a.394.394,0,0,1-.139.167.154.154,0,0,0,.139-.167" transform="translate(-260.374 -174.524)" fill="#0a0140"/><path d="M317.22,176.78c-.021.1-.049.189-.064.289.047-.13.144-.133.224-.167-.073-.033-.2-.043-.161-.123" transform="translate(-252.511 -143.401)" fill="#0a0140"/><path d="M331.519,172.973c-.008-.053.046-.058.037-.111l-.126-.1c-.093.119-.065.279.088.21" transform="translate(-263.786 -140.217)" fill="#0a0140"/><path d="M322.81,177.255c.258.129.256-.055.3-.237a.076.076,0,0,1-.017.027c-.31-.264-.3-.023-.287.21" transform="translate(-256.989 -143.52)" fill="#0a0140"/><path d="M324.365,176.456a.344.344,0,0,1,.08-.145c-.123-.108-.063.039-.08.145" transform="translate(-258.226 -143)" fill="#0a0140"/><path d="M314.4,184.4c.1-.059-.323-.188-.2-.2-.306-.228.2.739.2.2" transform="translate(-250.093 -149.263)" fill="#0a0140"/><path d="M325.815,179.776l-.334-.133.2.229Z" transform="translate(-259.11 -145.671)" fill="#0a0140"/><path d="M322.85,184.118l.207-.2a.126.126,0,0,1-.078-.119c-.083.146-.229.283-.129.321" transform="translate(-257 -148.964)" fill="#0a0140"/><path d="M323.6,182.938a.253.253,0,0,0,.043-.224.54.54,0,0,0-.043.224" transform="translate(-257.616 -148.106)" fill="#0a0140"/><path d="M325.8,182.034l-.1.03a1.279,1.279,0,0,0-.113.151,2.61,2.61,0,0,1,.218-.182" transform="translate(-259.191 -147.567)" fill="#0a0140"/><path d="M318.758,198.785l.057.307c.116.043.2-.027.171-.14-.075-.079-.1-.195-.228-.167" transform="translate(-253.781 -160.843)" fill="#0a0140"/><path d="M322.991,195.578a.669.669,0,0,1-.294.058l.429.1Z" transform="translate(-256.904 -158.304)" fill="#0a0140"/><path d="M323.917,199.06c.117.047.289.423.312.094-.116-.041-.175-.322-.312-.094" transform="translate(-257.871 -160.995)" fill="#0a0140"/><path d="M319.872,219.189l-.024-.069-.692.206Z" transform="translate(-254.096 -176.968)" fill="#0a0140"/><path d="M335.282,230.018c-.028-.327-.4.213-.378-.122-.18.044-.014.275-.174.307.252.035.224.169.552-.185" transform="translate(-266.444 -185.511)" fill="#0a0140"/><path d="M334.178,231.34a.851.851,0,0,0-.144-.009.35.35,0,0,0,.144.009" transform="translate(-265.892 -186.649)" fill="#0a0140"/><path d="M371.7,133.558c-.086-.061-.173-.114-.263-.167l.161.249Z" transform="translate(-295.545 -109.003)" fill="#0a0140"/><path d="M369.315,134.888l-.052-.462-.162.411c.058-.018.172-.055.214.051" transform="translate(-293.691 -109.824)" fill="#0a0140"/><path d="M383.727,240.432l.032.108c.07.1.11.088.189.07Z" transform="translate(-305.288 -193.864)" fill="#0a0140"/><path d="M393.942,236.014l-.035.021.323.266Z" transform="translate(-313.358 -190.361)" fill="#0a0140"/><path d="M398.147,227.495c-.06.05-.039.177-.1.228.038-.176.53.061.1-.228" transform="translate(-316.641 -183.607)" fill="#0a0140"/><path d="M15.969-103.891a8.588,8.588,0,0,1,6.177,2.1,7.406,7.406,0,0,1,2.44,4.765H21.818a5.76,5.76,0,0,0-1.876-3.21A5.946,5.946,0,0,0,16-101.423a6.326,6.326,0,0,0-5,2.176q-1.9,2.176-1.9,6.67a9.687,9.687,0,0,0,1.719,5.971,6.007,6.007,0,0,0,5.129,2.29,5.418,5.418,0,0,0,4.779-2.411,9.169,9.169,0,0,0,1.3-3.338h2.768a9.457,9.457,0,0,1-2.454,5.55,8.731,8.731,0,0,1-6.734,2.7,8.888,8.888,0,0,1-6.135-2.211Q6.2-86.957,6.2-93.063a11.536,11.536,0,0,1,2.454-7.6A8.963,8.963,0,0,1,15.969-103.891Z" transform="translate(-4.641 131.846)" fill="#90001a" stroke="#90001a" stroke-width="2"/><path d="M2.3-21.264H3.765a2.939,2.939,0,0,1,.607.062A1.5,1.5,0,0,1,4.887-21a1.059,1.059,0,0,1,.354.388A1.258,1.258,0,0,1,5.374-20a1.356,1.356,0,0,1-.142.665,1.014,1.014,0,0,1-.382.391,1.6,1.6,0,0,1-.558.188,4.312,4.312,0,0,1-.662.049H3.075V-16.9H2.3Zm1.245,1.892q.166,0,.345-.012a1.06,1.06,0,0,0,.33-.074.585.585,0,0,0,.246-.185.552.552,0,0,0,.1-.345.544.544,0,0,0-.086-.323.571.571,0,0,0-.222-.185.936.936,0,0,0-.3-.083,2.9,2.9,0,0,0-.32-.018H3.075v1.226Zm3.414-1.892h.672L9.508-16.9H8.621l-.407-1H6.323l-.394,1H5.059Zm.986,2.7-.672-1.775-.684,1.775Zm1.99-2.7h1.516a3.088,3.088,0,0,1,.607.059,1.554,1.554,0,0,1,.521.2,1.047,1.047,0,0,1,.364.382,1.23,1.23,0,0,1,.136.61,1.215,1.215,0,0,1-.262.795,1.123,1.123,0,0,1-.749.388L13.224-16.9h-.937L11.277-18.75H10.71V-16.9H9.933Zm1.38,1.849q.166,0,.333-.015a1.022,1.022,0,0,0,.305-.074.521.521,0,0,0,.225-.179.568.568,0,0,0,.086-.336.536.536,0,0,0-.08-.308.5.5,0,0,0-.21-.176.964.964,0,0,0-.287-.077,2.611,2.611,0,0,0-.305-.018H10.71v1.183Zm3.851-1.849h.672L17.716-16.9h-.887l-.407-1H14.53l-.394,1h-.869Zm.986,2.7-.672-1.775-.684,1.775Zm3.7-2.7h.518v3.882h2v.481H19.848Zm5.047,4.473a2.365,2.365,0,0,1-.915-.173,2.2,2.2,0,0,1-.721-.478,2.145,2.145,0,0,1-.474-.727,2.433,2.433,0,0,1-.169-.915A2.433,2.433,0,0,1,22.784-20a2.145,2.145,0,0,1,.474-.727,2.2,2.2,0,0,1,.721-.478,2.365,2.365,0,0,1,.915-.173,2.365,2.365,0,0,1,.915.173,2.2,2.2,0,0,1,.721.478A2.145,2.145,0,0,1,27-20a2.433,2.433,0,0,1,.169.915,2.433,2.433,0,0,1-.169.915,2.145,2.145,0,0,1-.474.727,2.2,2.2,0,0,1-.721.478A2.365,2.365,0,0,1,24.894-16.79Zm0-.481a1.7,1.7,0,0,0,.7-.142,1.651,1.651,0,0,0,.545-.388,1.773,1.773,0,0,0,.354-.576,1.955,1.955,0,0,0,.126-.706,1.955,1.955,0,0,0-.126-.706,1.773,1.773,0,0,0-.354-.576,1.651,1.651,0,0,0-.545-.388,1.7,1.7,0,0,0-.7-.142,1.7,1.7,0,0,0-.7.142,1.651,1.651,0,0,0-.545.388,1.773,1.773,0,0,0-.354.576,1.955,1.955,0,0,0-.126.706,1.955,1.955,0,0,0,.126.706,1.773,1.773,0,0,0,.354.576,1.651,1.651,0,0,0,.545.388A1.7,1.7,0,0,0,24.894-17.271Zm5.12-3.223a.762.762,0,0,0-.345-.305,1.1,1.1,0,0,0-.45-.1,1.345,1.345,0,0,0-.339.043,1.006,1.006,0,0,0-.3.129.648.648,0,0,0-.213.228.665.665,0,0,0-.08.333.693.693,0,0,0,.046.262.552.552,0,0,0,.151.206,1.122,1.122,0,0,0,.283.173,3.917,3.917,0,0,0,.437.16q.253.08.49.173a1.651,1.651,0,0,1,.419.234,1.038,1.038,0,0,1,.29.354,1.173,1.173,0,0,1,.108.533,1.179,1.179,0,0,1-.129.567,1.186,1.186,0,0,1-.342.4,1.483,1.483,0,0,1-.49.234,2.131,2.131,0,0,1-.573.077,2.183,2.183,0,0,1-.382-.034,1.832,1.832,0,0,1-.367-.1,1.489,1.489,0,0,1-.33-.185,1.113,1.113,0,0,1-.265-.28l.444-.364a.912.912,0,0,0,.394.364,1.207,1.207,0,0,0,.536.123,1.2,1.2,0,0,0,.336-.049,1.02,1.02,0,0,0,.305-.145.789.789,0,0,0,.222-.237.615.615,0,0,0,.086-.327.7.7,0,0,0-.068-.33.605.605,0,0,0-.209-.219,1.617,1.617,0,0,0-.357-.166l-.505-.173a3.2,3.2,0,0,1-.431-.169,1.325,1.325,0,0,1-.342-.234,1,1,0,0,1-.228-.333,1.177,1.177,0,0,1-.083-.465,1.161,1.161,0,0,1,.123-.548,1.155,1.155,0,0,1,.333-.391,1.513,1.513,0,0,1,.474-.237,1.906,1.906,0,0,1,.555-.08,1.914,1.914,0,0,1,.675.114,1.321,1.321,0,0,1,.545.4Zm4.363-.77h.487L36.719-16.9h-.6l-.444-1.072H33.49L33.04-16.9h-.585Zm.234.665H34.6l-.906,2.144h1.781Zm4.985-.185H38.154V-16.9h-.518v-3.882H36.195v-.481h3.4Zm1.4-.481h.487L43.336-16.9h-.6l-.444-1.072H40.108l-.45,1.072h-.585Zm.234.665h-.012l-.906,2.144h1.781Zm6.6,3.685-.3.364-.683-.52a2.545,2.545,0,0,1-.534.217,2.3,2.3,0,0,1-.627.081,2.021,2.021,0,0,1-1.613-.674,2.58,2.58,0,0,1-.514-1.643A2.613,2.613,0,0,1,44-20.623a1.929,1.929,0,0,1,1.691-.818,2.023,2.023,0,0,1,1.733.752,2.438,2.438,0,0,1,.439,1.5,3.169,3.169,0,0,1-.105.821,2.123,2.123,0,0,1-.539.981Zm-2.073-.394a2.247,2.247,0,0,0,.349-.026.747.747,0,0,0,.283-.1l-.484-.379.3-.37.578.448a1.674,1.674,0,0,0,.372-.7,3.042,3.042,0,0,0,.1-.743,1.86,1.86,0,0,0-.408-1.255,1.391,1.391,0,0,0-1.115-.475,1.464,1.464,0,0,0-1.134.456,2.022,2.022,0,0,0-.418,1.4,1.9,1.9,0,0,0,.4,1.27A1.46,1.46,0,0,0,45.752-17.307Zm6.105-1.258a2.513,2.513,0,0,1-.089.678,1.569,1.569,0,0,1-.283.564,1.37,1.37,0,0,1-.508.388,1.818,1.818,0,0,1-.764.145,1.818,1.818,0,0,1-.764-.145,1.37,1.37,0,0,1-.508-.388,1.569,1.569,0,0,1-.283-.564,2.513,2.513,0,0,1-.089-.678v-2.7h.518v2.625a2.323,2.323,0,0,0,.055.511,1.268,1.268,0,0,0,.185.437.938.938,0,0,0,.345.305,1.153,1.153,0,0,0,.542.114,1.153,1.153,0,0,0,.542-.114.938.938,0,0,0,.345-.305,1.268,1.268,0,0,0,.185-.437,2.323,2.323,0,0,0,.055-.511v-2.625h.518Zm1-2.7H55.6v.481H53.379v1.368h2.077v.481H53.379v1.553h2.335v.481H52.861Zm5.663.77a.762.762,0,0,0-.345-.305,1.1,1.1,0,0,0-.45-.1,1.345,1.345,0,0,0-.339.043,1.006,1.006,0,0,0-.3.129.648.648,0,0,0-.213.228.665.665,0,0,0-.08.333.693.693,0,0,0,.046.262.552.552,0,0,0,.151.206,1.122,1.122,0,0,0,.283.173,3.917,3.917,0,0,0,.437.16q.253.08.49.173a1.651,1.651,0,0,1,.419.234,1.038,1.038,0,0,1,.29.354,1.173,1.173,0,0,1,.108.533,1.179,1.179,0,0,1-.129.567,1.186,1.186,0,0,1-.342.4,1.483,1.483,0,0,1-.49.234,2.131,2.131,0,0,1-.573.077,2.183,2.183,0,0,1-.382-.034,1.832,1.832,0,0,1-.367-.1,1.489,1.489,0,0,1-.33-.185,1.113,1.113,0,0,1-.265-.28l.444-.364a.912.912,0,0,0,.394.364,1.207,1.207,0,0,0,.536.123,1.2,1.2,0,0,0,.336-.049,1.02,1.02,0,0,0,.305-.145.789.789,0,0,0,.222-.237.615.615,0,0,0,.086-.327.7.7,0,0,0-.068-.33.605.605,0,0,0-.21-.219,1.617,1.617,0,0,0-.357-.166l-.505-.173a3.2,3.2,0,0,1-.431-.169,1.325,1.325,0,0,1-.342-.234,1,1,0,0,1-.228-.333,1.177,1.177,0,0,1-.083-.465,1.161,1.161,0,0,1,.123-.548,1.155,1.155,0,0,1,.333-.391,1.513,1.513,0,0,1,.474-.237,1.906,1.906,0,0,1,.555-.08,1.914,1.914,0,0,1,.675.114,1.321,1.321,0,0,1,.545.4Zm2.865-.77h1.676a2.272,2.272,0,0,1,.456.049,2.24,2.24,0,0,1,.478.157,2.218,2.218,0,0,1,.456.28,1.866,1.866,0,0,1,.385.416,2.081,2.081,0,0,1,.265.561,2.417,2.417,0,0,1,.1.718,2.417,2.417,0,0,1-.1.718,2.081,2.081,0,0,1-.265.561,1.866,1.866,0,0,1-.385.416,2.218,2.218,0,0,1-.456.28,2.24,2.24,0,0,1-.478.157,2.272,2.272,0,0,1-.456.049H61.389Zm.518,3.882h.986a2.357,2.357,0,0,0,.7-.1,1.489,1.489,0,0,0,.555-.305,1.434,1.434,0,0,0,.37-.527,1.972,1.972,0,0,0,.136-.77,1.972,1.972,0,0,0-.136-.77,1.434,1.434,0,0,0-.37-.527,1.489,1.489,0,0,0-.555-.305,2.358,2.358,0,0,0-.7-.1h-.986Zm4.067-3.882h2.742v.481H66.491v1.368h2.077v.481H66.491v1.553h2.335v.481H65.974Zm6.661,0h.487L74.976-16.9h-.6l-.444-1.072H71.747L71.3-16.9h-.585Zm.234.665h-.012l-.906,2.144h1.781Zm4.7.1a.762.762,0,0,0-.345-.305,1.1,1.1,0,0,0-.45-.1,1.345,1.345,0,0,0-.339.043,1.006,1.006,0,0,0-.3.129.648.648,0,0,0-.213.228.665.665,0,0,0-.08.333.693.693,0,0,0,.046.262.552.552,0,0,0,.151.206,1.122,1.122,0,0,0,.283.173,3.917,3.917,0,0,0,.437.16q.253.08.49.173a1.652,1.652,0,0,1,.419.234,1.038,1.038,0,0,1,.29.354,1.173,1.173,0,0,1,.108.533,1.179,1.179,0,0,1-.129.567,1.186,1.186,0,0,1-.342.4,1.483,1.483,0,0,1-.49.234,2.131,2.131,0,0,1-.573.077,2.183,2.183,0,0,1-.382-.034,1.832,1.832,0,0,1-.367-.1,1.489,1.489,0,0,1-.33-.185,1.113,1.113,0,0,1-.265-.28l.444-.364a.912.912,0,0,0,.394.364,1.207,1.207,0,0,0,.536.123,1.2,1.2,0,0,0,.336-.049,1.019,1.019,0,0,0,.305-.145.789.789,0,0,0,.222-.237.616.616,0,0,0,.086-.327.7.7,0,0,0-.068-.33.606.606,0,0,0-.21-.219,1.617,1.617,0,0,0-.357-.166l-.505-.173a3.2,3.2,0,0,1-.431-.169,1.325,1.325,0,0,1-.342-.234,1,1,0,0,1-.228-.333,1.177,1.177,0,0,1-.083-.465,1.161,1.161,0,0,1,.123-.548,1.155,1.155,0,0,1,.333-.391,1.513,1.513,0,0,1,.474-.237,1.906,1.906,0,0,1,.555-.08,1.914,1.914,0,0,1,.675.114,1.321,1.321,0,0,1,.545.4Zm1.294-.77h.77l1.479,3.42h.012l1.491-3.42h.752V-16.9h-.518v-3.66h-.012L81.267-16.9h-.314l-1.565-3.66h-.012v3.66h-.518Zm6.944,0h.487L88.144-16.9h-.6L87.1-17.973H84.915l-.45,1.072H83.88Zm.234.665h-.012l-.906,2.144H86.9Z" transform="translate(-1.776 94.767)" fill="#0a0145"/><path d="M1.8-25.219H.252v-.811H4.235v.811H2.692v4.224H1.8ZM5.97-23.491a2.916,2.916,0,0,1,.2-1.1,2.465,2.465,0,0,1,.551-.843,2.416,2.416,0,0,1,.839-.537,2.943,2.943,0,0,1,1.07-.188,2.991,2.991,0,0,1,1.081.174,2.363,2.363,0,0,1,.846.53,2.447,2.447,0,0,1,.555.839,2.888,2.888,0,0,1,.2,1.1,2.8,2.8,0,0,1-.2,1.074,2.463,2.463,0,0,1-.555.832,2.534,2.534,0,0,1-.846.544,2.994,2.994,0,0,1-1.081.2,2.943,2.943,0,0,1-1.07-.188,2.442,2.442,0,0,1-.839-.533,2.451,2.451,0,0,1-.551-.829A2.8,2.8,0,0,1,5.97-23.491Zm.939-.057a2.165,2.165,0,0,0,.124.747,1.754,1.754,0,0,0,.352.59,1.638,1.638,0,0,0,.544.391,1.707,1.707,0,0,0,.708.142,1.732,1.732,0,0,0,.711-.142,1.629,1.629,0,0,0,.548-.391,1.754,1.754,0,0,0,.352-.59,2.165,2.165,0,0,0,.124-.747,1.964,1.964,0,0,0-.124-.7,1.744,1.744,0,0,0-.352-.572,1.61,1.61,0,0,0-.548-.384,1.77,1.77,0,0,0-.711-.139,1.745,1.745,0,0,0-.708.139,1.619,1.619,0,0,0-.544.384,1.744,1.744,0,0,0-.352.572A1.964,1.964,0,0,0,6.909-23.548Zm6.65-2.482h.9v4.224H16.6v.811H13.558Zm5.085,0h3.335v.811H19.539v1.237h2.311v.811H19.539v1.365h2.567v.811H18.643Zm5.739,0h1.75a3.564,3.564,0,0,1,.7.068,1.794,1.794,0,0,1,.6.231,1.209,1.209,0,0,1,.42.441,1.42,1.42,0,0,1,.156.7,1.4,1.4,0,0,1-.3.917,1.3,1.3,0,0,1-.864.448l1.337,2.226H27.1l-1.166-2.134h-.654v2.134h-.9ZM25.976-23.9q.192,0,.384-.018A1.179,1.179,0,0,0,26.712-24a.6.6,0,0,0,.26-.206.655.655,0,0,0,.1-.388.618.618,0,0,0-.092-.356.575.575,0,0,0-.242-.2,1.113,1.113,0,0,0-.331-.089,3.013,3.013,0,0,0-.352-.021h-.775V-23.9Zm5.91-2.134h.775l2.169,5.035H33.806l-.469-1.152H31.153L30.7-20.995h-1Zm1.138,3.115-.775-2.048-.789,2.048Zm3.762-3.115h1.188l2.439,3.741h.014V-26.03h.9v5.035H40.185L37.7-24.856h-.014v3.862h-.9ZM47.3-24.849a1.5,1.5,0,0,0-.537-.4,1.45,1.45,0,0,0-.523-.1,1.745,1.745,0,0,0-.708.139,1.619,1.619,0,0,0-.544.384,1.744,1.744,0,0,0-.352.572,1.963,1.963,0,0,0-.124.7,2.165,2.165,0,0,0,.124.747,1.754,1.754,0,0,0,.352.59,1.638,1.638,0,0,0,.544.391,1.707,1.707,0,0,0,.708.142,1.3,1.3,0,0,0,.594-.146,1.621,1.621,0,0,0,.537-.466l.74.526a2.015,2.015,0,0,1-.832.683,2.593,2.593,0,0,1-1.045.213,2.943,2.943,0,0,1-1.07-.188,2.442,2.442,0,0,1-.839-.533,2.451,2.451,0,0,1-.551-.829,2.8,2.8,0,0,1-.2-1.074,2.916,2.916,0,0,1,.2-1.1,2.465,2.465,0,0,1,.551-.843,2.416,2.416,0,0,1,.839-.537,2.943,2.943,0,0,1,1.07-.188,2.454,2.454,0,0,1,.949.181,2.213,2.213,0,0,1,.814.615Zm2.788-1.181h.9v5.035h-.9Zm5.021,0h.775l2.169,5.035H57.026l-.469-1.152H54.373l-.455,1.152h-1Zm1.138,3.115-.775-2.048-.789,2.048Zm10.717-1.934a1.5,1.5,0,0,0-.537-.4,1.45,1.45,0,0,0-.523-.1,1.745,1.745,0,0,0-.708.139,1.619,1.619,0,0,0-.544.384,1.744,1.744,0,0,0-.352.572,1.963,1.963,0,0,0-.124.7,2.165,2.165,0,0,0,.124.747,1.754,1.754,0,0,0,.352.59,1.638,1.638,0,0,0,.544.391,1.707,1.707,0,0,0,.708.142,1.3,1.3,0,0,0,.594-.146,1.621,1.621,0,0,0,.537-.466l.74.526a2.015,2.015,0,0,1-.832.683,2.593,2.593,0,0,1-1.045.213,2.943,2.943,0,0,1-1.07-.188,2.442,2.442,0,0,1-.839-.533,2.45,2.45,0,0,1-.551-.829,2.8,2.8,0,0,1-.2-1.074,2.916,2.916,0,0,1,.2-1.1,2.465,2.465,0,0,1,.551-.843,2.416,2.416,0,0,1,.839-.537,2.943,2.943,0,0,1,1.07-.188,2.454,2.454,0,0,1,.949.181,2.213,2.213,0,0,1,.814.615ZM69.77-26.03h3.335v.811H70.666v1.237h2.311v.811H70.666v1.365h2.567v.811H69.77Zm5.739,0h1.749a3.564,3.564,0,0,1,.7.068,1.794,1.794,0,0,1,.6.231,1.209,1.209,0,0,1,.42.441,1.42,1.42,0,0,1,.156.7,1.4,1.4,0,0,1-.3.917,1.3,1.3,0,0,1-.864.448l1.337,2.226H78.226L77.06-23.128h-.654v2.134h-.9ZM77.1-23.9q.192,0,.384-.018A1.179,1.179,0,0,0,77.838-24a.6.6,0,0,0,.26-.206.655.655,0,0,0,.1-.388.619.619,0,0,0-.092-.356.575.575,0,0,0-.242-.2,1.113,1.113,0,0,0-.331-.089,3.013,3.013,0,0,0-.352-.021h-.775V-23.9Zm4.011.405a2.916,2.916,0,0,1,.2-1.1,2.465,2.465,0,0,1,.551-.843,2.416,2.416,0,0,1,.839-.537,2.943,2.943,0,0,1,1.07-.188,2.991,2.991,0,0,1,1.081.174,2.363,2.363,0,0,1,.846.53,2.447,2.447,0,0,1,.555.839,2.888,2.888,0,0,1,.2,1.1,2.8,2.8,0,0,1-.2,1.074,2.463,2.463,0,0,1-.555.832,2.534,2.534,0,0,1-.846.544,2.994,2.994,0,0,1-1.081.2,2.943,2.943,0,0,1-1.07-.188,2.442,2.442,0,0,1-.839-.533,2.451,2.451,0,0,1-.551-.829A2.8,2.8,0,0,1,81.113-23.491Zm.939-.057a2.165,2.165,0,0,0,.124.747,1.754,1.754,0,0,0,.352.59,1.638,1.638,0,0,0,.544.391,1.707,1.707,0,0,0,.708.142,1.732,1.732,0,0,0,.711-.142,1.628,1.628,0,0,0,.548-.391,1.754,1.754,0,0,0,.352-.59,2.165,2.165,0,0,0,.124-.747,1.964,1.964,0,0,0-.124-.7,1.744,1.744,0,0,0-.352-.572,1.61,1.61,0,0,0-.548-.384,1.77,1.77,0,0,0-.711-.139,1.745,1.745,0,0,0-.708.139,1.619,1.619,0,0,0-.544.384,1.744,1.744,0,0,0-.352.572A1.964,1.964,0,0,0,82.052-23.548Z" transform="translate(-0.088 90.752)" fill="#0a0145"/><text transform="translate(0 4)" fill="#0b004a" font-size="4" font-family="Avenir-Heavy, Avenir" font-weight="800" letter-spacing="-0.015em"><tspan x="0" y="0">EN TODAS LAS SEVERIDADES</tspan></text></g></svg>