<svg xmlns="http://www.w3.org/2000/svg" width="59" height="59" viewBox="0 0 59 59"><g transform="translate(-800 -1314)"><rect width="59" height="59" transform="translate(800 1314)" fill="#fff"/><path d="M0,0A9.13,9.13,0,0,1,18.26,0,9.141,9.141,0,0,1,9.13,9.13,9.139,9.139,0,0,1,0,0M25.539,13.577l-5.82-5.821A13.058,13.058,0,0,0,22.268,0,13.136,13.136,0,0,0-4,0,13.136,13.136,0,0,0,9.132,13.138a13.05,13.05,0,0,0,7.754-2.55l5.821,5.821Z" transform="translate(819.457 1341.982)" fill="#3c4242"/><path d="M203.452-16.91A13.135,13.135,0,0,0,216.589-3.774h0a13.06,13.06,0,0,0,7.754-2.549h0L229.3-1.37h1.735L233-3.335l-5.82-5.822a13.066,13.066,0,0,0,2.549-7.753h0a13.136,13.136,0,0,0-13.136-13.136h0A13.137,13.137,0,0,0,203.452-16.91m4,0a9.142,9.142,0,0,1,9.131-9.13h0a9.141,9.141,0,0,1,9.129,9.13h0a9.141,9.141,0,0,1-9.129,9.13h0a9.142,9.142,0,0,1-9.131-9.13" transform="translate(612 1358.895)" fill="#3c4242"/></g></svg>